<svg xmlns="http://www.w3.org/2000/svg" version="1.1" xmlns:xlink="http://www.w3.org/1999/xlink" xmlns:svgjs="http://svgjs.dev/svgjs" width="1000" height="1000" viewBox="0 0 1000 1000"><rect width="1000" height="1000" fill="#000000"></rect><g transform="matrix(0.7,0,0,0.7,149.57575757575762,282.1265587044535)"><svg viewBox="0 0 396 247" data-background-color="#ffffff" preserveAspectRatio="xMidYMid meet" height="623" width="1000" xmlns="http://www.w3.org/2000/svg" xmlns:xlink="http://www.w3.org/1999/xlink"><g id="tight-bounds" transform="matrix(1,0,0,1,0.2400000000000091,-0.09999999999999432)"><svg viewBox="0 0 395.52 247.2" height="247.2" width="395.52"><g><svg></svg></g><g><svg viewBox="0 0 395.52 247.2" height="247.2" width="395.52"><g transform="matrix(1,0,0,1,75.54432,73.44211976878614)"><svg viewBox="0 0 244.43135999999998 100.31576046242772" height="100.31576046242772" width="244.43135999999998"><g><svg viewBox="0 0 244.43135999999998 100.31576046242772" height="100.31576046242772" width="244.43135999999998"><g><svg viewBox="0 0 244.43136 100.31576046242773" height="100.31576046242772" width="244.43135999999998"><g><svg viewBox="0 0 244.43136 100.31576046242773" height="100.31576046242773" width="244.43136"><g id="textblocktransform"><svg viewBox="0 0 244.43136 100.31576046242773" height="100.31576046242773" width="244.43136" id="textblock"><g><svg viewBox="0 0 244.43136 100.31576046242773" height="100.31576046242773" width="244.43136"><g transform="matrix(1,0,0,1,0,0)"><svg width="244.43136" viewBox="4.25 -35 112.44000244140625 46.150001525878906" height="100.31576046242773" data-palette-color="#ee3e38"><path d="M8.1 0L4.25 0 4.25-34.6 11.2-34.6 21-5.35 30.8-34.6 37.75-34.6 37.75 0 33.9 0 33.9-30.5 33.2-30.5 23.15-1.25 18.85-1.25 8.8-30.5 8.1-30.5 8.1 0ZM62.35-3.1L62.35-3.1 63.8-3.25 63.9-0.3Q58.2 0.5 54.15 0.5L54.15 0.5Q48.75 0.5 46.5-2.63 44.25-5.75 44.25-12.35L44.25-12.35Q44.25-25.5 54.7-25.5L54.7-25.5Q59.75-25.5 62.25-22.68 64.75-19.85 64.75-13.8L64.75-13.8 64.55-10.95 48.05-10.95Q48.05-6.8 49.55-4.8 51.05-2.8 54.77-2.8 58.5-2.8 62.35-3.1ZM48-13.95L61-13.95Q61-18.55 59.52-20.45 58.05-22.35 54.72-22.35 51.4-22.35 49.72-20.35 48.05-18.35 48-13.95L48-13.95ZM74.34 0L70.59 0 70.59-25 74.3-25 74.3-21.6Q78.65-24.6 83.45-25.55L83.45-25.55 83.45-21.75Q81.34-21.35 79.07-20.5 76.8-19.65 75.59-19L75.59-19 74.34-18.35 74.34 0ZM105.54-17.45L105.54-17.45 105.54-4.65Q105.69-2.8 108.44-2.45L108.44-2.45 108.29 0.5Q104.34 0.5 102.34-1.5L102.34-1.5Q97.84 0.5 93.34 0.5L93.34 0.5Q89.89 0.5 88.09-1.45 86.29-3.4 86.29-7.05 86.29-10.7 88.14-12.43 89.99-14.15 93.94-14.55L93.94-14.55 101.79-15.3 101.79-17.45Q101.79-20 100.69-21.1 99.59-22.2 97.69-22.2L97.69-22.2Q93.69-22.2 89.39-21.7L89.39-21.7 87.84-21.55 87.69-24.4Q93.19-25.5 97.44-25.5 101.69-25.5 103.62-23.55 105.54-21.6 105.54-17.45ZM90.14-7.25L90.14-7.25Q90.14-2.65 93.94-2.65L93.94-2.65Q97.34-2.65 100.64-3.8L100.64-3.8 101.79-4.2 101.79-12.45 94.39-11.75Q92.14-11.55 91.14-10.45 90.14-9.35 90.14-7.25ZM112.99-0.65L112.99-0.65 112.99-25 116.69-25 116.69-0.6Q116.69 4 115.04 6.3 113.39 8.6 108.39 11.15L108.39 11.15 106.89 8.25Q110.79 6 111.89 4.42 112.99 2.85 112.99-0.65ZM116.69-30.65L112.99-30.65 112.99-35 116.69-35 116.69-30.65Z" opacity="1" transform="matrix(1,0,0,1,0,0)" fill="#ffffff" class="wordmark-text-0" data-fill-palette-color="primary" id="text-0"></path></svg></g></svg></g></svg></g></svg></g></svg></g></svg></g></svg></g><g><path d="M0 123.6c0-68.262 55.338-123.6 123.6-123.6 45.667 0 85.55 24.767 106.949 61.601l-5.266 0c-20.916-34.231-58.632-57.078-101.683-57.078-65.764 0-119.077 53.312-119.077 119.077 0 65.764 53.312 119.077 119.077 119.077 43.052 0 80.767-22.847 101.683-57.078h5.266c-21.399 36.834-61.282 61.601-106.949 61.601-68.262 0-123.6-55.338-123.6-123.6z" fill="#ffffff" stroke="transparent" data-fill-palette-color="tertiary"></path></g></svg></g><defs></defs></svg><rect width="395.52" height="247.2" fill="none" stroke="none" visibility="hidden"></rect></g></svg></g></svg>